<svg width="16.000000" height="16.000000" viewBox="0 0 16 16" fill="none" xmlns="http://www.w3.org/2000/svg" xmlns:xlink="http://www.w3.org/1999/xlink">
	<desc>
			Created with Pixso.
	</desc>
	<defs>
		<clipPath id="clip2615_1690">
			<rect id="Icon/16px/Facebook" rx="0.000000" width="15.000000" height="15.000000" transform="translate(0.500000 0.500000)" fill="white" fill-opacity="0"/>
		</clipPath>
	</defs>
	<rect id="Icon/16px/Facebook" rx="0.000000" width="15.000000" height="15.000000" transform="translate(0.500000 0.500000)" fill="#FFFFFF" fill-opacity="0"/>
	<g clip-path="url(#clip2615_1690)">
		<path id="Vector" d="M8.84 3.81C8.84 3.98 8.84 4.51 8.84 5.27L11.45 5.27L11.17 7.59L8.84 7.59C8.84 11.18 8.84 15.98 8.84 15.98L5.76 15.98C5.76 15.98 5.76 11.24 5.76 7.59L4.15 7.59L4.15 5.27L5.76 5.27C5.76 4.35 5.76 3.69 5.76 3.51C5.76 2.64 5.69 2.23 6.06 1.55C6.43 0.88 7.47 -0.01 9.28 0.01C11.08 0.03 11.84 0.21 11.84 0.21L11.45 2.68C11.45 2.68 10.3 2.38 9.73 2.49C9.17 2.6 8.84 2.94 8.84 3.81Z" fill="#FFFFFF" fill-opacity="1.000000" fill-rule="nonzero"/>
	</g>
</svg>
