<svg width="16.000000" height="16.000000" viewBox="0 0 16 16" fill="none" xmlns="http://www.w3.org/2000/svg" xmlns:xlink="http://www.w3.org/1999/xlink">
	<desc>
			Created with Pixso.
	</desc>
	<defs>
		<clipPath id="clip2615_1692">
			<rect id="Icon/16px/Instagram" rx="0.000000" width="15.000000" height="15.000000" transform="translate(0.500000 0.500000)" fill="white" fill-opacity="0"/>
		</clipPath>
	</defs>
	<rect id="Icon/16px/Instagram" rx="0.000000" width="15.000000" height="15.000000" transform="translate(0.500000 0.500000)" fill="#FFFFFF" fill-opacity="0"/>
	<g clip-path="url(#clip2615_1692)">
		<path id="Vector" d="M8 14.66C6.57 14.66 5.54 14.66 4.73 14.58C3.94 14.51 3.43 14.36 3.03 14.1C2.57 13.81 2.18 13.42 1.89 12.96C1.63 12.56 1.48 12.05 1.41 11.26C1.33 10.45 1.33 9.42 1.33 8C1.33 6.57 1.33 5.54 1.41 4.73C1.48 3.94 1.63 3.43 1.89 3.03C2.18 2.57 2.57 2.18 3.03 1.89C3.43 1.63 3.94 1.48 4.73 1.41C5.54 1.33 6.57 1.33 8 1.33C9.42 1.33 10.45 1.33 11.26 1.41C12.05 1.48 12.56 1.63 12.96 1.89C13.42 2.18 13.81 2.57 14.1 3.03C14.36 3.43 14.51 3.94 14.58 4.73C14.66 5.54 14.66 6.57 14.66 8C14.66 9.42 14.66 10.45 14.58 11.26C14.51 12.05 14.36 12.56 14.1 12.96C13.81 13.42 13.42 13.81 12.96 14.1C12.56 14.36 12.05 14.51 11.26 14.58C10.45 14.66 9.42 14.66 8 14.66Z" fill="#FFFFFF" fill-opacity="1.000000" fill-rule="nonzero"/>
		<path id="Vector" d="M4.73 14.58C3.94 14.51 3.43 14.36 3.03 14.1C2.57 13.81 2.18 13.42 1.89 12.96C1.63 12.56 1.48 12.05 1.41 11.26C1.33 10.45 1.33 9.42 1.33 8C1.33 6.57 1.33 5.54 1.41 4.73C1.48 3.94 1.63 3.43 1.89 3.03C2.18 2.57 2.57 2.18 3.03 1.89C3.43 1.63 3.94 1.48 4.73 1.41C5.54 1.33 6.57 1.33 8 1.33C9.42 1.33 10.45 1.33 11.26 1.41C12.05 1.48 12.56 1.63 12.96 1.89C13.42 2.18 13.81 2.57 14.1 3.03C14.36 3.43 14.51 3.94 14.58 4.73C14.66 5.54 14.66 6.57 14.66 8C14.66 9.42 14.66 10.45 14.58 11.26C14.51 12.05 14.36 12.56 14.1 12.96C13.81 13.42 13.42 13.81 12.96 14.1C12.56 14.36 12.05 14.51 11.26 14.58C10.45 14.66 9.42 14.66 8 14.66C6.57 14.66 5.54 14.66 4.73 14.58Z" stroke="#FFFFFF" stroke-opacity="1.000000" stroke-width="2.000000"/>
		<path id="Vector" d="M10.66 8.66C10.66 10.13 9.47 11.33 8 11.33C6.52 11.33 5.33 10.13 5.33 8.66C5.33 7.19 6.52 6 8 6C9.47 6 10.66 7.19 10.66 8.66Z" fill="#FFFFFF" fill-opacity="1.000000" fill-rule="evenodd"/>
		<path id="Vector" d="M8 11.33C6.52 11.33 5.33 10.13 5.33 8.66C5.33 7.19 6.52 6 8 6C9.47 6 10.66 7.19 10.66 8.66C10.66 10.13 9.47 11.33 8 11.33Z" stroke="#000000" stroke-opacity="1.000000" stroke-width="2.000000"/>
		<path id="Vector" d="M12 4.75C12 5.16 11.66 5.5 11.25 5.5C10.83 5.5 10.5 5.16 10.5 4.75C10.5 4.33 10.83 4 11.25 4C11.66 4 12 4.33 12 4.75Z" fill="#000000" fill-opacity="1.000000" fill-rule="evenodd"/>
	</g>
</svg>
