<svg width="95.952881" height="28.280029" viewBox="0 0 95.9529 28.28" fill="none" xmlns="http://www.w3.org/2000/svg" xmlns:xlink="http://www.w3.org/1999/xlink">
	<desc>
			Created with Pixso.
	</desc>
	<defs/>
	<path id="Logo Vector" d="M5.42 9.39L8.91 7.39L6.96 4.02L25.25 4.02L16.11 19.86L14.16 16.49L10.68 18.5L16.11 27.9L32.22 0L0 0L5.42 9.39ZM61.22 5.4L61.22 23L64.37 23L64.37 22.8L64.34 22.16C64.94 22.88 66.41 23.31 67.32 23.31C71.04 23.31 73.2 20.98 73.2 17.38C73.2 14.19 71.09 11.43 67.32 11.43C66.26 11.43 64.73 11.81 64.22 12.48L64.27 11.67L64.27 5.4L61.22 5.4ZM93.48 14.26C94.12 14.26 94.68 14.33 95.3 14.55L95.95 11.74C95.23 11.48 94.03 11.4 93.36 11.4C91.8 11.4 90.19 11.74 89.25 12.22L89.25 23L92.35 23L92.35 14.43C92.68 14.28 93.04 14.26 93.48 14.26ZM40.15 23.4C42.07 23.4 43.68 22.76 44.73 21.48L42.93 19.44C42.31 20.24 41.16 20.62 40.15 20.62C38.44 20.62 37.15 19.47 37.15 17.4C37.15 15.51 38.54 14.21 40.15 14.21C41.27 14.21 42.12 14.55 42.88 15.39L44.78 13.4C43.72 12.12 41.97 11.43 40.15 11.43C36.38 11.43 34.05 13.88 34.05 17.4C34.05 20.96 36.35 23.4 40.15 23.4ZM85.89 21.56C85 22.71 82.96 23.4 81.21 23.4C77.39 23.4 75.25 20.79 75.25 17.4C75.25 13.95 77.37 11.43 81.09 11.43C84.78 11.43 86.89 13.95 86.89 17.4C86.89 17.79 86.89 18.03 86.87 18.36L78.37 18.36C78.54 19.78 79.6 20.67 81.21 20.67C82.36 20.67 83.44 20.28 84.11 19.54L85.89 21.56ZM52.37 28.28L48.94 28.28L51.17 23.12L46.34 11.72L49.75 11.72L52.15 17.81L52.85 20L53.52 17.81L55.92 11.72L59.35 11.72L52.37 28.28ZM78.42 16.3L83.7 16.3C83.56 15.03 82.5 14.16 81.09 14.16C79.67 14.16 78.54 15.03 78.42 16.3ZM64.22 17.38C64.22 15.58 65.47 14.26 67.2 14.26C68.88 14.26 70.03 15.51 70.03 17.38C70.03 19.23 68.88 20.48 67.2 20.48C65.47 20.48 64.22 19.16 64.22 17.38Z" fill="#000000" fill-opacity="1.000000" fill-rule="evenodd"/>
</svg>
