<svg width="124.000000" height="24.000000" viewBox="0 0 124 24" fill="none" xmlns="http://www.w3.org/2000/svg" xmlns:xlink="http://www.w3.org/1999/xlink">
	<desc>
			Created with Pixso.
	</desc>
	<defs/>
	<path id="Star 1" d="M9.97 1.34L8.1 5.51C7.77 6.24 7.11 6.74 6.35 6.84L1.97 7.4C0.07 7.63 -0.68 10.06 0.71 11.41L3.94 14.54C4.51 15.1 4.75 15.91 4.61 16.7L3.77 21.21C3.41 23.16 5.39 24.66 7.05 23.7L10.91 21.47C11.59 21.08 12.4 21.08 13.08 21.47L16.94 23.7C18.6 24.66 20.58 23.16 20.22 21.21L19.38 16.7C19.24 15.91 19.48 15.1 20.05 14.54L23.28 11.41C24.67 10.06 23.92 7.63 22.02 7.4L17.64 6.84C16.88 6.74 16.22 6.24 15.89 5.51L14.02 1.34C13.22 -0.45 10.77 -0.45 9.97 1.34Z" fill="#FFB547" fill-opacity="1.000000" fill-rule="evenodd"/>
	<path id="Star 1" d="M34.97 1.34L33.1 5.51C32.77 6.24 32.11 6.74 31.35 6.84L26.97 7.4C25.07 7.63 24.32 10.06 25.71 11.41L28.94 14.54C29.51 15.1 29.75 15.91 29.61 16.7L28.77 21.21C28.41 23.16 30.39 24.66 32.05 23.7L35.91 21.47C36.59 21.08 37.4 21.08 38.08 21.47L41.94 23.7C43.6 24.66 45.58 23.16 45.22 21.21L44.38 16.7C44.24 15.91 44.48 15.1 45.05 14.54L48.28 11.41C49.67 10.06 48.92 7.63 47.02 7.4L42.64 6.84C41.88 6.74 41.22 6.24 40.89 5.51L39.02 1.34C38.22 -0.45 35.77 -0.45 34.97 1.34Z" fill="#FFB547" fill-opacity="1.000000" fill-rule="evenodd"/>
	<path id="Star 1" d="M59.97 1.34L58.1 5.51C57.77 6.24 57.11 6.74 56.35 6.84L51.97 7.4C50.07 7.63 49.32 10.06 50.71 11.41L53.94 14.54C54.51 15.1 54.75 15.91 54.61 16.7L53.77 21.21C53.41 23.16 55.39 24.66 57.05 23.7L60.91 21.47C61.59 21.08 62.4 21.08 63.08 21.47L66.94 23.7C68.6 24.66 70.58 23.16 70.22 21.21L69.38 16.7C69.24 15.91 69.48 15.1 70.05 14.54L73.28 11.41C74.67 10.06 73.92 7.63 72.02 7.4L67.64 6.84C66.88 6.74 66.22 6.24 65.89 5.51L64.02 1.34C63.22 -0.45 60.77 -0.45 59.97 1.34Z" fill="#FFB547" fill-opacity="1.000000" fill-rule="evenodd"/>
	<path id="Star 1" d="M84.97 1.34L83.1 5.51C82.77 6.24 82.11 6.74 81.35 6.84L76.97 7.4C75.07 7.63 74.32 10.06 75.71 11.41L78.94 14.54C79.51 15.1 79.75 15.91 79.61 16.7L78.77 21.21C78.41 23.16 80.39 24.66 82.05 23.7L85.91 21.47C86.59 21.08 87.4 21.08 88.08 21.47L91.94 23.7C93.6 24.66 95.58 23.16 95.22 21.21L94.38 16.7C94.24 15.91 94.48 15.1 95.05 14.54L98.28 11.41C99.67 10.06 98.92 7.63 97.02 7.4L92.64 6.84C91.88 6.74 91.22 6.24 90.89 5.51L89.02 1.34C88.22 -0.45 85.77 -0.45 84.97 1.34Z" fill="#FFB547" fill-opacity="1.000000" fill-rule="evenodd"/>
	<path id="Star 1" d="M109.97 1.34L108.1 5.51C107.78 6.24 107.11 6.74 106.35 6.84L101.97 7.4C100.07 7.63 99.32 10.06 100.71 11.41L103.94 14.54C104.51 15.1 104.75 15.91 104.61 16.7L103.77 21.21C103.41 23.16 105.39 24.66 107.05 23.7L110.91 21.47C111.59 21.08 112.4 21.08 113.08 21.47L116.94 23.7C118.6 24.66 120.59 23.16 120.22 21.21L119.38 16.7C119.24 15.91 119.48 15.1 120.05 14.54L123.28 11.41C124.67 10.06 123.92 7.63 122.02 7.4L117.64 6.84C116.88 6.74 116.22 6.24 115.89 5.51L114.02 1.34C113.22 -0.45 110.77 -0.45 109.97 1.34Z" fill="#FFB547" fill-opacity="1.000000" fill-rule="evenodd"/>
</svg>
