<svg width="24.000000" height="23.999985" viewBox="0 0 24 24" fill="none" xmlns="http://www.w3.org/2000/svg" xmlns:xlink="http://www.w3.org/1999/xlink">
	<desc>
			Created with Pixso.
	</desc>
	<defs/>
	<path id="Star 1" d="M9.97 1.34L8.1 5.51C7.77 6.24 7.11 6.74 6.35 6.84L1.97 7.4C0.07 7.63 -0.68 10.06 0.71 11.41L3.94 14.54C4.51 15.1 4.75 15.91 4.61 16.7L3.77 21.21C3.41 23.16 5.39 24.66 7.05 23.7L10.91 21.47C11.59 21.08 12.4 21.08 13.08 21.47L16.94 23.7C18.6 24.66 20.58 23.16 20.22 21.21L19.38 16.7C19.24 15.91 19.48 15.1 20.05 14.54L23.28 11.41C24.67 10.06 23.92 7.63 22.02 7.4L17.64 6.84C16.88 6.74 16.22 6.24 15.89 5.51L14.02 1.34C13.22 -0.45 10.77 -0.45 9.97 1.34Z" fill="#FFB547" fill-opacity="1.000000" fill-rule="evenodd"/>
</svg>
