<svg width="24.001137" height="24.000534" viewBox="0 0 24.0011 24.0005" fill="none" xmlns="http://www.w3.org/2000/svg" xmlns:xlink="http://www.w3.org/1999/xlink">
	<desc>
			Created with Pixso.
	</desc>
	<defs/>
	<path id="Star 5" d="M8.1 5.51C7.77 6.24 7.11 6.74 6.35 6.84L1.97 7.4C0.07 7.63 -0.68 10.06 0.71 11.41L3.94 14.54C4.51 15.1 4.75 15.91 4.61 16.7L3.77 21.21C3.41 23.16 5.39 24.66 7.05 23.7L10.91 21.47C11.59 21.08 12.4 21.08 13.08 21.47L16.94 23.7C18.6 24.66 20.58 23.16 20.22 21.21L19.38 16.7C19.24 15.91 19.48 15.1 20.05 14.54L23.28 11.41C24.67 10.06 23.92 7.63 22.02 7.4L17.64 6.84C16.88 6.74 16.22 6.24 15.89 5.51L14.02 1.34C13.22 -0.45 10.77 -0.45 9.97 1.34L8.1 5.51ZM9.28 6.08C8.76 7.23 7.71 8.02 6.5 8.17L2.12 8.74C1.33 8.83 1.01 9.86 1.59 10.43L4.82 13.56C5.71 14.42 6.12 15.71 5.88 16.96L5.04 21.47C4.88 22.29 5.71 22.91 6.41 22.51L10.28 20.28C11.35 19.66 12.64 19.66 13.71 20.28L17.58 22.51C18.26 22.91 19.11 22.29 18.95 21.47L18.11 16.96C17.87 15.71 18.28 14.42 19.17 13.56L22.4 10.43C22.98 9.86 22.66 8.83 21.87 8.74L17.49 8.17C16.28 8.02 15.23 7.23 14.71 6.08L12.84 1.91C12.51 1.15 11.48 1.15 11.15 1.91L9.28 6.08Z" fill="#FFB547" fill-opacity="1.000000" fill-rule="evenodd"/>
</svg>
