<svg width="24.000000" height="24.000000" viewBox="0 0 24 24" fill="none" xmlns="http://www.w3.org/2000/svg" xmlns:xlink="http://www.w3.org/1999/xlink">
	<desc>
			Created with Pixso.
	</desc>
	<defs>
		<clipPath id="clip2603_2764">
			<rect id="smartphone-rotate-2-svgrepo-com 2" rx="0.000000" width="23.000000" height="23.000000" transform="translate(0.500000 0.500000)" fill="white" fill-opacity="0"/>
		</clipPath>
	</defs>
	<rect id="smartphone-rotate-2-svgrepo-com 2" rx="0.000000" width="23.000000" height="23.000000" transform="translate(0.500000 0.500000)" fill="#FFFFFF" fill-opacity="0"/>
	<g clip-path="url(#clip2603_2764)">
		<path id="Vector" d="M7.58 7.58C8.17 7 9.11 7 11 7L13 7C14.88 7 15.82 7 16.41 7.58C17 8.17 17 9.11 17 11L17 13C17 14.88 17 15.82 16.41 16.41C15.82 17 14.88 17 13 17L11 17C9.11 17 8.17 17 7.58 16.41C7 15.82 7 14.88 7 13L7 11C7 9.11 7 8.17 7.58 7.58Z" stroke="#4E4E4E" stroke-opacity="1.000000" stroke-width="1.000000"/>
		<path id="Vector" d="M11 10L13 10C13.55 10 14 10.44 14 11L14 13C14 13.55 13.55 14 13 14L11 14C10.44 14 10 13.55 10 13L10 11C10 10.44 10.44 10 11 10Z" fill="#4E4E4E" fill-opacity="1.000000" fill-rule="evenodd"/>
		<path id="Vector" d="M10 7L10 4" stroke="#4E4E4E" stroke-opacity="1.000000" stroke-width="1.000000" stroke-linecap="round"/>
		<path id="Vector" d="M14 7L14 4" stroke="#4E4E4E" stroke-opacity="1.000000" stroke-width="1.000000" stroke-linecap="round"/>
		<path id="Vector" d="M17 10L20 10" stroke="#4E4E4E" stroke-opacity="1.000000" stroke-width="1.000000" stroke-linecap="round"/>
		<path id="Vector" d="M17 14L20 14" stroke="#4E4E4E" stroke-opacity="1.000000" stroke-width="1.000000" stroke-linecap="round"/>
		<path id="Vector" d="M10 20L10 17" stroke="#4E4E4E" stroke-opacity="1.000000" stroke-width="1.000000" stroke-linecap="round"/>
		<path id="Vector" d="M14 20L14 17" stroke="#4E4E4E" stroke-opacity="1.000000" stroke-width="1.000000" stroke-linecap="round"/>
		<path id="Vector" d="M4 10L7 10" stroke="#4E4E4E" stroke-opacity="1.000000" stroke-width="1.000000" stroke-linecap="round"/>
		<path id="Vector" d="M4 14L7 14" stroke="#4E4E4E" stroke-opacity="1.000000" stroke-width="1.000000" stroke-linecap="round"/>
	</g>
</svg>
