<svg width="56.000000" height="56.000000" viewBox="0 0 56 56" fill="none" xmlns="http://www.w3.org/2000/svg" xmlns:xlink="http://www.w3.org/1999/xlink">
	<desc>
			Created with Pixso.
	</desc>
	<defs>
		<clipPath id="clip2603_2722">
			<rect id="delivery-truck-svgrepo-com (1) 1" rx="0.000000" width="23.000000" height="23.000000" transform="translate(16.500000 16.500000)" fill="white" fill-opacity="0"/>
		</clipPath>
		<clipPath id="clip2603_2721">
			<rect id="Icon/56px/Delivery" rx="10.500000" width="55.000000" height="55.000000" transform="translate(0.500000 0.500000)" fill="white" fill-opacity="0"/>
		</clipPath>
	</defs>
	<rect id="Icon/56px/Delivery" rx="10.500000" width="55.000000" height="55.000000" transform="translate(0.500000 0.500000)" fill="#F6F6F6" fill-opacity="1.000000"/>
	<g clip-path="url(#clip2603_2721)">
		<rect id="delivery-truck-svgrepo-com (1) 1" rx="0.000000" width="23.000000" height="23.000000" transform="translate(16.500000 16.500000)" fill="#FFFFFF" fill-opacity="0"/>
		<g clip-path="url(#clip2603_2722)">
			<path id="Vector" d="M37.47 27.18L36.43 25.75C36.2 25.43 35.9 25.16 35.55 24.98C35.19 24.8 34.8 24.7 34.41 24.7L30.03 24.7L30.03 22.56C30.03 21.9 29.76 21.26 29.29 20.79C28.82 20.32 28.19 20.06 27.53 20.06L20.56 20.06C19.89 20.06 19.26 20.33 18.79 20.79C18.32 21.26 18.06 21.9 18.06 22.56L18.06 32.5C18.06 32.9 18.21 33.28 18.49 33.56C18.78 33.84 19.16 34 19.56 34L20.78 34C20.85 34.54 21.12 35.02 21.52 35.38C21.93 35.73 22.45 35.93 23 35.93C23.54 35.93 24.06 35.73 24.47 35.38C24.87 35.02 25.14 34.54 25.22 34L30.78 34C30.85 34.54 31.12 35.02 31.52 35.38C31.93 35.73 32.45 35.93 33 35.93C33.54 35.93 34.06 35.73 34.47 35.38C34.87 35.02 35.14 34.54 35.22 34L36.43 34C36.83 34 37.21 33.84 37.5 33.56C37.78 33.28 37.93 32.9 37.93 32.5L37.93 28.63C37.93 28.11 37.77 27.6 37.47 27.18ZM23 34.93C22.75 34.93 22.51 34.86 22.3 34.72C22.1 34.58 21.93 34.39 21.84 34.16C21.75 33.93 21.72 33.68 21.77 33.44C21.82 33.19 21.94 32.97 22.11 32.8C22.29 32.62 22.51 32.5 22.75 32.45C22.99 32.41 23.24 32.43 23.47 32.53C23.7 32.62 23.9 32.78 24.03 32.99C24.17 33.19 24.25 33.43 24.25 33.68C24.25 34.01 24.11 34.33 23.88 34.56C23.64 34.8 23.33 34.93 23 34.93ZM29.03 33L25.15 33C25 32.54 24.71 32.15 24.33 31.86C23.94 31.58 23.47 31.43 23 31.43C22.52 31.43 22.05 31.58 21.66 31.86C21.28 32.15 20.99 32.54 20.85 33L19.56 33C19.42 33 19.3 32.95 19.2 32.85C19.11 32.76 19.06 32.63 19.06 32.5L19.06 22.56C19.06 22.16 19.21 21.78 19.49 21.5C19.78 21.22 20.16 21.06 20.56 21.06L27.53 21.06C27.92 21.06 28.3 21.22 28.59 21.5C28.87 21.78 29.03 22.16 29.03 22.56L29.03 33ZM33 34.93C32.75 34.93 32.51 34.86 32.3 34.72C32.09 34.58 31.93 34.39 31.84 34.16C31.75 33.93 31.72 33.68 31.77 33.44C31.82 33.19 31.94 32.97 32.11 32.8C32.29 32.62 32.51 32.5 32.75 32.45C32.99 32.41 33.24 32.43 33.47 32.53C33.7 32.62 33.9 32.78 34.03 32.99C34.17 33.19 34.25 33.43 34.25 33.68C34.25 34.01 34.11 34.33 33.88 34.56C33.64 34.8 33.33 34.93 33 34.93ZM36.93 32.5C36.93 32.63 36.88 32.76 36.79 32.85C36.69 32.95 36.57 33 36.43 33L35.15 33C35 32.54 34.71 32.15 34.33 31.86C33.94 31.58 33.47 31.43 33 31.43C32.52 31.43 32.05 31.58 31.66 31.86C31.28 32.15 30.99 32.54 30.85 33L30.03 33L30.03 25.7L34.41 25.7C34.64 25.7 34.88 25.76 35.09 25.87C35.3 25.98 35.49 26.14 35.63 26.33L36.66 27.76C36.84 28.01 36.93 28.32 36.93 28.63L36.93 32.5Z" fill="#797979" fill-opacity="1.000000" fill-rule="nonzero"/>
			<path id="Vector" d="M34.02 28.2L32.02 28.2C31.89 28.2 31.76 28.15 31.67 28.05C31.58 27.96 31.52 27.83 31.52 27.7C31.52 27.57 31.58 27.44 31.67 27.35C31.76 27.25 31.89 27.2 32.02 27.2L34.02 27.2C34.16 27.2 34.28 27.25 34.38 27.35C34.47 27.44 34.52 27.57 34.52 27.7C34.52 27.83 34.47 27.96 34.38 28.05C34.28 28.15 34.16 28.2 34.02 28.2Z" fill="#797979" fill-opacity="1.000000" fill-rule="nonzero"/>
		</g>
	</g>
</svg>
