<svg width="24.000000" height="24.000000" viewBox="0 0 24 24" fill="none" xmlns="http://www.w3.org/2000/svg" xmlns:xlink="http://www.w3.org/1999/xlink">
	<desc>
			Created with Pixso.
	</desc>
	<defs>
		<clipPath id="clip2603_2777">
			<rect id="smartphone-rotate-2-svgrepo-com 2" rx="0.000000" width="23.000000" height="23.000000" transform="translate(0.500000 0.500000)" fill="white" fill-opacity="0"/>
		</clipPath>
	</defs>
	<rect id="smartphone-rotate-2-svgrepo-com 2" rx="0.000000" width="23.000000" height="23.000000" transform="translate(0.500000 0.500000)" fill="#FFFFFF" fill-opacity="0"/>
	<g clip-path="url(#clip2603_2777)">
		<path id="Vector" d="M14.22 21L9.77 21C6.65 21 5.09 21 3.97 20.26C3.48 19.94 3.07 19.53 2.74 19.06C2 17.96 2 16.42 2 13.36C2 10.29 2 8.76 2.74 7.66C3.07 7.19 3.48 6.78 3.97 6.46C4.69 5.99 5.59 5.82 6.97 5.76C7.63 5.76 8.2 5.27 8.33 4.63C8.52 3.68 9.37 3 10.36 3L13.63 3C14.62 3 15.47 3.68 15.66 4.63C15.79 5.27 16.36 5.76 17.02 5.76C18.4 5.82 19.3 5.99 20.02 6.46C20.51 6.78 20.92 7.19 21.25 7.66C22 8.76 22 10.29 22 13.36C22 16.42 22 17.96 21.25 19.06C20.92 19.53 20.51 19.94 20.02 20.26C18.9 21 17.34 21 14.22 21ZM15.26 9.59C15.26 9.18 14.93 8.84 14.51 8.84C14.1 8.84 13.76 9.18 13.76 9.59L13.76 9.74C12.29 8.99 10.45 9.24 9.22 10.46C7.69 11.99 7.69 14.47 9.22 16C10.75 17.53 13.24 17.53 14.77 16C15.42 15.35 15.79 14.53 15.89 13.68C15.93 13.27 15.64 12.9 15.23 12.85C14.82 12.8 14.44 13.1 14.4 13.51C14.34 14.03 14.11 14.54 13.7 14.94C12.76 15.89 11.23 15.89 10.29 14.94C9.34 14 9.34 12.47 10.29 11.52C10.93 10.88 11.86 10.67 12.68 10.91C12.37 11.06 12.19 11.4 12.26 11.75C12.35 12.15 12.74 12.41 13.15 12.33L14.67 12.01C15.02 11.94 15.26 11.63 15.26 11.27L15.26 9.59Z" fill="#4E4E4E" fill-opacity="1.000000" fill-rule="evenodd"/>
	</g>
</svg>
