<svg width="56.000000" height="56.000000" viewBox="0 0 56 56" fill="none" xmlns="http://www.w3.org/2000/svg" xmlns:xlink="http://www.w3.org/1999/xlink">
	<desc>
			Created with Pixso.
	</desc>
	<defs/>
	<rect id="Icon/56px/Guaranteed" rx="10.500000" width="55.000000" height="55.000000" transform="translate(0.500000 0.500000)" fill="#F6F6F6" fill-opacity="1.000000"/>
	<path id="Vector" d="M26.78 31.17C26.58 31.17 26.39 31.09 26.25 30.95L23.83 28.53C23.54 28.24 23.54 27.76 23.83 27.47C24.12 27.18 24.6 27.18 24.89 27.47L26.78 29.36L31.08 25.06C31.37 24.77 31.85 24.77 32.14 25.06C32.43 25.35 32.43 25.83 32.14 26.12L27.31 30.95C27.17 31.09 26.98 31.17 26.78 31.17Z" fill="#797979" fill-opacity="1.000000" fill-rule="nonzero"/>
	<path id="Vector" d="M28 38.75C27.37 38.75 26.74 38.54 26.25 38.12L24.67 36.75C24.51 36.62 24.11 36.48 23.9 36.48L22.18 36.48C20.7 36.48 19.5 35.28 19.5 33.8L19.5 32.09C19.5 31.88 19.36 31.49 19.21 31.33L17.87 29.74C17.04 28.77 17.04 27.24 17.87 26.27L19.21 24.68C19.36 24.52 19.5 24.13 19.5 23.92L19.5 22.2C19.5 20.72 20.7 19.52 22.18 19.52L23.91 19.52C24.12 19.52 24.52 19.37 24.68 19.24L26.26 17.87C27.24 17.04 28.77 17.04 29.75 17.87L31.33 19.24C31.49 19.37 31.89 19.52 32.09 19.52L33.8 19.52C35.28 19.52 36.48 20.72 36.48 22.2L36.48 23.9C36.48 24.11 36.63 24.51 36.77 24.67L38.13 26.25C38.97 27.23 38.97 28.76 38.13 29.74L36.77 31.32C36.63 31.48 36.48 31.88 36.48 32.09L36.48 33.79C36.48 35.27 35.28 36.47 33.8 36.47L32.09 36.47C31.89 36.47 31.49 36.62 31.33 36.75L29.75 38.11C29.26 38.54 28.63 38.75 28 38.75ZM22.18 21.02C21.53 21.02 21 21.55 21 22.2L21 23.91C21 24.48 20.73 25.21 20.36 25.64L19.01 27.23C18.66 27.64 18.66 28.35 19.01 28.76L20.36 30.35C20.73 30.79 21 31.51 21 32.08L21 33.79C21 34.43 21.53 34.97 22.18 34.97L23.91 34.97C24.49 34.97 25.22 35.24 25.66 35.62L27.24 36.98C27.65 37.33 28.37 37.33 28.78 36.98L30.36 35.62C30.8 35.25 31.53 34.97 32.11 34.97L33.81 34.97C34.46 34.97 34.99 34.43 34.99 33.79L34.99 32.09C34.99 31.51 35.25 30.78 35.64 30.34L37 28.76C37.34 28.35 37.34 27.63 37 27.22L35.64 25.64C35.25 25.2 34.99 24.47 34.99 23.89L34.99 22.2C34.99 21.55 34.46 21.02 33.81 21.02L32.11 21.02C31.53 21.02 30.8 20.75 30.36 20.37L28.78 19.01C28.37 18.66 27.65 18.66 27.24 19.01L25.66 20.37C25.22 20.75 24.48 21.02 23.91 21.02L22.18 21.02Z" fill="#797979" fill-opacity="1.000000" fill-rule="nonzero"/>
	<g opacity="0.000000"/>
</svg>
