<svg width="56.000000" height="56.000000" viewBox="0 0 56 56" fill="none" xmlns="http://www.w3.org/2000/svg" xmlns:xlink="http://www.w3.org/1999/xlink">
	<desc>
			Created with Pixso.
	</desc>
	<defs>
		<clipPath id="clip2603_2728">
			<rect id="shop-2-svgrepo-com 2" rx="0.000000" width="23.000000" height="23.000000" transform="translate(16.500000 16.500000)" fill="white" fill-opacity="0"/>
		</clipPath>
		<clipPath id="clip2603_2727">
			<rect id="Icon/56px/Stock" rx="10.500000" width="55.000000" height="55.000000" transform="translate(0.500000 0.500000)" fill="white" fill-opacity="0"/>
		</clipPath>
	</defs>
	<rect id="Icon/56px/Stock" rx="10.500000" width="55.000000" height="55.000000" transform="translate(0.500000 0.500000)" fill="#F6F6F6" fill-opacity="1.000000"/>
	<g clip-path="url(#clip2603_2727)">
		<rect id="shop-2-svgrepo-com 2" rx="0.000000" width="23.000000" height="23.000000" transform="translate(16.500000 16.500000)" fill="#FFFFFF" fill-opacity="0"/>
		<g clip-path="url(#clip2603_2728)">
			<path id="Vector" d="M23.43 17.25L32.56 17.25C33.13 17.25 33.61 17.25 34.01 17.29C34.44 17.33 34.83 17.43 35.2 17.66C35.58 17.89 35.84 18.19 36.07 18.56C36.28 18.9 36.5 19.33 36.75 19.84L36.77 19.87C36.78 19.89 36.79 19.91 36.8 19.93L38.2 23.48C38.37 23.9 38.55 24.43 38.61 24.97C38.66 25.52 38.59 26.15 38.16 26.7C37.8 27.15 37.31 27.48 36.75 27.64L36.75 37.25L38 37.25C38.41 37.25 38.75 37.58 38.75 38C38.75 38.41 38.41 38.75 38 38.75L18 38.75C17.58 38.75 17.25 38.41 17.25 38C17.25 37.58 17.58 37.25 18 37.25L19.25 37.25L19.25 27.64C18.68 27.48 18.19 27.15 17.83 26.7C17.4 26.15 17.33 25.52 17.38 24.97C17.44 24.43 17.62 23.9 17.79 23.48L19.19 19.93C19.2 19.91 19.21 19.89 19.22 19.87L19.24 19.84C19.49 19.33 19.71 18.9 19.92 18.56C20.15 18.19 20.41 17.89 20.79 17.66C21.16 17.43 21.55 17.33 21.98 17.29C22.38 17.25 22.86 17.25 23.43 17.25ZM33.99 26.88C34.33 27.24 34.76 27.5 35.25 27.64L35.25 37.25L31.25 37.25L31.25 34.46C31.25 34.02 31.25 33.64 31.22 33.33C31.19 33 31.12 32.68 30.94 32.37C30.75 32.03 30.46 31.74 30.12 31.55C29.81 31.37 29.49 31.3 29.16 31.27C28.85 31.25 28.47 31.25 28.03 31.25L27.96 31.25C27.52 31.25 27.14 31.25 26.83 31.27C26.5 31.3 26.18 31.37 25.87 31.55C25.53 31.74 25.24 32.03 25.05 32.37C24.87 32.68 24.8 33 24.77 33.33C24.75 33.64 24.75 34.02 24.75 34.46L24.75 37.25L20.75 37.25L20.75 27.64C21.23 27.5 21.66 27.24 21.99 26.88C22.5 27.41 23.21 27.75 23.99 27.75C24.78 27.75 25.49 27.41 25.99 26.88C26.5 27.41 27.21 27.75 27.99 27.75C28.78 27.75 29.49 27.41 29.99 26.88C30.5 27.41 31.21 27.75 31.99 27.75C32.78 27.75 33.49 27.41 33.99 26.88ZM26.25 37.25L29.75 37.25L29.75 34.5C29.75 34.01 29.74 33.7 29.72 33.47C29.7 33.24 29.67 33.16 29.64 33.12C29.58 33.01 29.48 32.91 29.37 32.85C29.33 32.82 29.25 32.79 29.02 32.77C28.79 32.75 28.48 32.75 28 32.75C27.51 32.75 27.2 32.75 26.97 32.77C26.74 32.79 26.66 32.82 26.62 32.85C26.51 32.91 26.41 33.01 26.35 33.12C26.32 33.16 26.29 33.24 26.27 33.47C26.25 33.7 26.25 34.01 26.25 34.5L26.25 37.25ZM22.74 25C22.74 25.69 23.3 26.25 23.99 26.25C24.69 26.25 25.24 25.69 25.24 25C25.24 24.58 25.58 24.25 25.99 24.25C26.41 24.25 26.74 24.58 26.74 25C26.74 25.69 27.3 26.25 27.99 26.25C28.69 26.25 29.24 25.69 29.24 25C29.24 24.58 29.58 24.25 29.99 24.25C30.41 24.25 30.74 24.58 30.74 25C30.74 25.69 31.3 26.25 31.99 26.25C32.69 26.25 33.24 25.69 33.24 25C33.24 24.58 33.58 24.25 33.99 24.25C34.41 24.25 34.74 24.58 34.74 25C34.74 25.69 35.3 26.25 35.99 26.25C36.39 26.25 36.75 26.06 36.98 25.77C37.09 25.62 37.15 25.43 37.12 25.12C37.08 24.79 36.96 24.43 36.81 24.03L35.42 20.51C35.15 19.98 34.97 19.62 34.8 19.36C34.64 19.11 34.53 19 34.42 18.93C34.3 18.86 34.16 18.81 33.86 18.78C33.55 18.75 33.14 18.75 32.52 18.75L23.47 18.75C22.85 18.75 22.44 18.75 22.13 18.78C21.83 18.81 21.69 18.86 21.57 18.93C21.46 19 21.35 19.11 21.19 19.36C21.02 19.62 20.84 19.98 20.57 20.51L19.18 24.03C19.03 24.43 18.91 24.79 18.87 25.12C18.84 25.43 18.9 25.62 19.01 25.77C19.24 26.06 19.6 26.25 19.99 26.25C20.69 26.25 21.24 25.69 21.24 25C21.24 24.58 21.58 24.25 21.99 24.25C22.41 24.25 22.74 24.58 22.74 25Z" fill="#797979" fill-opacity="1.000000" fill-rule="evenodd"/>
		</g>
	</g>
</svg>
