<svg width="24.000000" height="24.000000" viewBox="0 0 24 24" fill="none" xmlns="http://www.w3.org/2000/svg" xmlns:xlink="http://www.w3.org/1999/xlink">
	<desc>
			Created with Pixso.
	</desc>
	<defs>
		<clipPath id="clip2603_2775">
			<rect id="smartphone-rotate-2-svgrepo-com 2" rx="0.000000" width="23.000000" height="23.000000" transform="translate(0.500000 0.500000)" fill="white" fill-opacity="0"/>
		</clipPath>
	</defs>
	<rect id="smartphone-rotate-2-svgrepo-com 2" rx="0.000000" width="23.000000" height="23.000000" transform="translate(0.500000 0.500000)" fill="#FFFFFF" fill-opacity="0"/>
	<g clip-path="url(#clip2603_2775)">
		<path id="Vector" d="M9.42 0.75C8.71 0.75 8.48 0.9 8.48 1.68L8.48 2.39L6.37 2.39C4.98 2.39 4.73 2.64 4.73 4.03L4.73 21.6C4.73 22.99 4.99 23.24 6.37 23.24L17.62 23.24C19.01 23.24 19.26 22.99 19.26 21.6L19.26 4.03C19.26 2.64 19 2.39 17.62 2.39L15.51 2.39L15.51 1.68C15.51 0.9 15.28 0.75 14.57 0.75L9.42 0.75ZM6.37 5.67C6.37 3.79 6.14 4.03 8.01 4.03C8.95 4.03 15.28 4.03 15.98 4.03C17.85 4.03 17.62 3.79 17.62 5.67C17.62 6.6 17.62 19.03 17.62 19.96C17.62 21.84 17.85 21.6 15.98 21.6C15.04 21.6 8.95 21.6 8.01 21.6C6.14 21.6 6.37 21.84 6.37 19.96C6.37 19.03 6.37 6.6 6.37 5.67ZM7.54 8.95L16.45 8.95C16.71 8.95 16.92 9.16 16.92 9.42L16.92 12C16.92 12.25 16.71 12.46 16.45 12.46L7.54 12.46C7.28 12.46 7.07 12.25 7.07 12L7.07 9.42C7.07 9.16 7.28 8.95 7.54 8.95ZM7.54 13.17L16.45 13.17C16.71 13.17 16.92 13.38 16.92 13.64L16.92 16.21C16.92 16.47 16.71 16.68 16.45 16.68L7.54 16.68C7.28 16.68 7.07 16.47 7.07 16.21L7.07 13.64C7.07 13.38 7.28 13.17 7.54 13.17ZM7.54 17.39L16.45 17.39C16.71 17.39 16.92 17.6 16.92 17.85L16.92 20.43C16.92 20.69 16.71 20.9 16.45 20.9L7.54 20.9C7.28 20.9 7.07 20.69 7.07 20.43L7.07 17.85C7.07 17.6 7.28 17.39 7.54 17.39Z" fill="#4E4E4E" fill-opacity="1.000000" fill-rule="nonzero"/>
	</g>
</svg>
