<svg width="24.000000" height="24.000000" viewBox="0 0 24 24" fill="none" xmlns="http://www.w3.org/2000/svg" xmlns:xlink="http://www.w3.org/1999/xlink">
	<desc>
			Created with Pixso.
	</desc>
	<defs>
		<clipPath id="clip2603_2779">
			<rect id="smartphone-rotate-2-svgrepo-com 2" rx="0.000000" width="23.000000" height="23.000000" transform="translate(0.500000 0.500000)" fill="white" fill-opacity="0"/>
		</clipPath>
	</defs>
	<rect id="smartphone-rotate-2-svgrepo-com 2" rx="0.000000" width="23.000000" height="23.000000" transform="translate(0.500000 0.500000)" fill="#FFFFFF" fill-opacity="0"/>
	<g clip-path="url(#clip2603_2779)">
		<path id="Vector" d="M9.77 21L14.22 21C17.34 21 18.9 21 20.02 20.26C20.51 19.94 20.92 19.53 21.25 19.06C22 17.96 22 16.42 22 13.36C22 10.29 22 8.76 21.25 7.66C20.92 7.19 20.51 6.78 20.02 6.46C19.3 5.99 18.4 5.82 17.02 5.76C16.36 5.76 15.79 5.27 15.66 4.63C15.47 3.68 14.62 3 13.63 3L10.36 3C9.37 3 8.52 3.68 8.33 4.63C8.2 5.27 7.63 5.76 6.97 5.76C5.59 5.82 4.69 5.99 3.97 6.46C3.48 6.78 3.07 7.19 2.74 7.66C2 8.76 2 10.29 2 13.36C2 16.42 2 17.96 2.74 19.06C3.07 19.53 3.48 19.94 3.97 20.26C5.09 21 6.65 21 9.77 21ZM12 9.27C9.69 9.27 7.83 11.1 7.83 13.36C7.83 15.62 9.69 17.45 12 17.45C14.3 17.45 16.16 15.62 16.16 13.36C16.16 11.1 14.3 9.27 12 9.27ZM12 10.9C10.61 10.9 9.5 12 9.5 13.36C9.5 14.71 10.61 15.81 12 15.81C13.38 15.81 14.5 14.71 14.5 13.36C14.5 12 13.38 10.9 12 10.9ZM16.72 10.09C16.72 9.63 17.09 9.27 17.55 9.27L18.66 9.27C19.12 9.27 19.5 9.63 19.5 10.09C19.5 10.54 19.12 10.9 18.66 10.9L17.55 10.9C17.09 10.9 16.72 10.54 16.72 10.09Z" fill="#4E4E4E" fill-opacity="1.000000" fill-rule="evenodd"/>
	</g>
</svg>
