<svg width="24.000000" height="24.000000" viewBox="0 0 24 24" fill="none" xmlns="http://www.w3.org/2000/svg" xmlns:xlink="http://www.w3.org/1999/xlink">
	<desc>
			Created with Pixso.
	</desc>
	<defs>
		<clipPath id="clip2603_2783">
			<rect id="smartphone-rotate-2-svgrepo-com 2" rx="0.000000" width="23.000000" height="23.000000" transform="translate(0.500000 0.500000)" fill="white" fill-opacity="0"/>
		</clipPath>
	</defs>
	<rect id="smartphone-rotate-2-svgrepo-com 2" rx="0.000000" width="23.000000" height="23.000000" transform="translate(0.500000 0.500000)" fill="#FFFFFF" fill-opacity="0"/>
	<g clip-path="url(#clip2603_2783)">
		<path id="Vector" d="M12 3C12.38 3 12.69 3.31 12.69 3.69L12.69 6.48C13.2 6.48 13.67 6.49 14.09 6.5L14.09 6.48L14.09 3.69C14.09 3.31 14.4 3 14.79 3C15.17 3 15.48 3.31 15.48 3.69L15.48 6.48C15.48 6.52 15.48 6.56 15.48 6.59C16.41 6.71 17.06 6.94 17.55 7.44C18.05 7.93 18.28 8.58 18.4 9.51C18.43 9.51 18.47 9.51 18.51 9.51L21.3 9.51C21.68 9.51 22 9.82 22 10.2C22 10.59 21.68 10.9 21.3 10.9L18.51 10.9L18.49 10.9C18.5 11.32 18.51 11.79 18.51 12.3L21.3 12.3C21.68 12.3 22 12.61 22 13C22 13.38 21.68 13.69 21.3 13.69L18.51 13.69C18.51 14.2 18.5 14.67 18.49 15.09L18.51 15.09L21.3 15.09C21.68 15.09 22 15.4 22 15.79C22 16.17 21.68 16.48 21.3 16.48L18.51 16.48C18.47 16.48 18.43 16.48 18.4 16.48C18.28 17.41 18.05 18.06 17.55 18.55C17.06 19.05 16.41 19.28 15.48 19.4C15.48 19.43 15.48 19.47 15.48 19.51L15.48 22.3C15.48 22.68 15.17 23 14.79 23C14.4 23 14.09 22.68 14.09 22.3L14.09 19.51L14.09 19.49C13.67 19.5 13.2 19.51 12.69 19.51L12.69 22.3C12.69 22.68 12.38 23 12 23C11.61 23 11.3 22.68 11.3 22.3L11.3 19.51C10.79 19.51 10.32 19.5 9.9 19.49L9.9 19.51L9.9 22.3C9.9 22.68 9.59 23 9.2 23C8.82 23 8.51 22.68 8.51 22.3L8.51 19.51C8.51 19.47 8.51 19.43 8.51 19.4C7.58 19.28 6.93 19.05 6.44 18.55C5.94 18.06 5.71 17.41 5.59 16.48C5.56 16.48 5.52 16.48 5.48 16.48L2.69 16.48C2.31 16.48 2 16.17 2 15.79C2 15.4 2.31 15.09 2.69 15.09L5.48 15.09L5.5 15.09C5.49 14.67 5.48 14.2 5.48 13.69L2.69 13.69C2.31 13.69 2 13.38 2 13C2 12.61 2.31 12.3 2.69 12.3L5.48 12.3C5.48 11.79 5.49 11.32 5.5 10.9L5.48 10.9L2.69 10.9C2.31 10.9 2 10.59 2 10.2C2 9.82 2.31 9.51 2.69 9.51L5.48 9.51C5.52 9.51 5.56 9.51 5.59 9.51C5.71 8.58 5.94 7.93 6.44 7.44C6.93 6.94 7.58 6.71 8.51 6.59C8.51 6.56 8.51 6.52 8.51 6.48L8.51 3.69C8.51 3.31 8.82 3 9.2 3C9.59 3 9.9 3.31 9.9 3.69L9.9 6.48L9.9 6.5C10.32 6.49 10.79 6.48 11.3 6.48L11.3 3.69C11.3 3.31 11.61 3 12 3ZM11.02 8.58C10.4 8.58 9.87 8.58 9.44 8.63C8.98 8.7 8.55 8.83 8.19 9.19C7.83 9.55 7.7 9.98 7.63 10.44C7.58 10.87 7.58 11.4 7.58 12.02L7.58 13.97C7.58 14.59 7.58 15.12 7.63 15.55C7.7 16.01 7.83 16.45 8.19 16.8C8.55 17.16 8.98 17.29 9.44 17.36C9.87 17.41 10.4 17.41 11.02 17.41L12.97 17.41C13.59 17.41 14.12 17.41 14.55 17.36C15.01 17.29 15.45 17.16 15.8 16.8C16.16 16.45 16.29 16.01 16.36 15.55C16.41 15.12 16.41 14.59 16.41 13.97L16.41 12.02C16.41 11.4 16.41 10.87 16.36 10.44C16.29 9.98 16.16 9.55 15.8 9.19C15.45 8.83 15.01 8.7 14.55 8.63C14.12 8.58 13.59 8.58 12.97 8.58L11.02 8.58Z" fill="#4E4E4E" fill-opacity="1.000000" fill-rule="evenodd"/>
		<g opacity="0.500000">
			<path id="Vector" d="M9.18 10.18C9.23 10.12 9.32 10.06 9.63 10.02C9.95 9.97 10.39 9.97 11.06 9.97L12.93 9.97C13.6 9.97 14.04 9.97 14.36 10.02C14.67 10.06 14.76 10.12 14.81 10.18C14.87 10.23 14.93 10.32 14.97 10.63C15.02 10.95 15.02 11.39 15.02 12.06L15.02 13.93C15.02 14.6 15.02 15.04 14.97 15.36C14.93 15.67 14.87 15.76 14.81 15.81C14.76 15.87 14.67 15.93 14.36 15.97C14.04 16.02 13.6 16.02 12.93 16.02L11.06 16.02C10.39 16.02 9.95 16.02 9.63 15.97C9.32 15.93 9.23 15.87 9.18 15.81C9.12 15.76 9.06 15.67 9.02 15.36C8.97 15.04 8.97 14.6 8.97 13.93L8.97 12.06C8.97 11.39 8.97 10.95 9.02 10.63C9.06 10.32 9.12 10.23 9.18 10.18Z" fill="#4E4E4E" fill-opacity="1.000000" fill-rule="nonzero"/>
		</g>
	</g>
</svg>
