<svg width="24.000000" height="24.000000" viewBox="0 0 24 24" fill="none" xmlns="http://www.w3.org/2000/svg" xmlns:xlink="http://www.w3.org/1999/xlink">
	<desc>
			Created with Pixso.
	</desc>
	<defs>
		<clipPath id="clip2603_2781">
			<rect id="Icon/24px/Screensize" rx="0.000000" width="23.000000" height="23.000000" transform="translate(0.500000 0.500000)" fill="white" fill-opacity="0"/>
		</clipPath>
	</defs>
	<rect id="Icon/24px/Screensize" rx="0.000000" width="23.000000" height="23.000000" transform="translate(0.500000 0.500000)" fill="#FFFFFF" fill-opacity="0"/>
	<g clip-path="url(#clip2603_2781)">
		<path id="Vector" d="M6.6 3.25C5.76 4.09 5.76 5.44 5.76 8.16L5.76 15.83C5.76 18.55 5.76 19.9 6.6 20.74C7.45 21.59 8.8 21.59 11.52 21.59L12.47 21.59C15.19 21.59 16.54 21.59 17.39 20.74C18.23 19.9 18.23 18.55 18.23 15.83L18.23 8.16C18.23 5.44 18.23 4.09 17.39 3.25C16.54 2.4 15.19 2.4 12.47 2.4L11.52 2.4C8.8 2.4 7.45 2.4 6.6 3.25ZM14.39 6.03C14.81 6.03 15.14 5.69 15.14 5.28C15.14 4.87 14.81 4.53 14.39 4.53L9.6 4.53C9.18 4.53 8.85 4.87 8.85 5.28C8.85 5.69 9.18 6.03 9.6 6.03L14.39 6.03ZM11.99 18.71C12.79 18.71 13.43 18.07 13.43 17.27C13.43 16.48 12.79 15.83 11.99 15.83C11.2 15.83 10.56 16.48 10.56 17.27C10.56 18.07 11.2 18.71 11.99 18.71Z" fill="#4E4E4E" fill-opacity="1.000000" fill-rule="evenodd"/>
	</g>
</svg>
